<svg width="24" height="20" viewBox="0 0 24 20" fill="none" xmlns="http://www.w3.org/2000/svg">
<path d="M11.9915 7.80488C13.42 7.80488 14.5629 8.78049 14.5629 10C14.5629 11.2195 13.42 12.1951 11.9915 12.1951C10.5629 12.1951 9.42004 11.2195 9.42004 10C9.42004 8.78049 10.5629 7.80488 11.9915 7.80488ZM9.42004 2.19512C9.42004 3.41463 10.5629 4.39024 11.9915 4.39024C13.42 4.39024 14.5629 3.41463 14.5629 2.19512C14.5629 0.97561 13.42 0 11.9915 0C10.5629 0 9.42004 0.97561 9.42004 2.19512ZM9.42004 17.8049C9.42004 19.0244 10.5629 20 11.9915 20C13.42 20 14.5629 19.0244 14.5629 17.8049C14.5629 16.5854 13.42 15.6098 11.9915 15.6098C10.5629 15.6098 9.42004 16.5854 9.42004 17.8049Z" fill="white"/>
</svg>
