<svg width="11" height="6" viewBox="0 0 11 6" fill="none" xmlns="http://www.w3.org/2000/svg">
<path d="M5.53666 4.24166L9.64434 0.388475C9.79313 0.251577 9.98932 0.175406 10.1931 0.175406C10.397 0.175406 10.5932 0.251577 10.742 0.388475C10.8137 0.454451 10.8709 0.534194 10.9099 0.622767C10.949 0.711339 10.9692 0.806856 10.9692 0.903399C10.9692 0.999944 10.949 1.09546 10.9099 1.18403C10.8709 1.27261 10.8137 1.35235 10.742 1.41832L6.08493 5.78696C5.93614 5.92386 5.73995 6.00003 5.53612 6.00003C5.3323 6.00003 5.13611 5.92386 4.98732 5.78696L0.331377 1.41832C0.259652 1.35235 0.202475 1.27261 0.163385 1.18403C0.124295 1.09546 0.104126 0.999944 0.104126 0.9034C0.104126 0.806856 0.124295 0.71134 0.163385 0.622767C0.202475 0.534194 0.259652 0.454451 0.331377 0.388476C0.480163 0.251578 0.676359 0.175406 0.880182 0.175406C1.08401 0.175406 1.2802 0.251578 1.42899 0.388476L5.53666 4.24166Z" fill="white"/>
</svg>
