<svg width="24" height="20" viewBox="0 0 24 20" fill="none" xmlns="http://www.w3.org/2000/svg">
<path fill-rule="evenodd" clip-rule="evenodd" d="M1.43726 1.75C1.43726 1.33579 1.77304 1 2.18726 1H22.3695C22.7837 1 23.1195 1.33579 23.1195 1.75C23.1195 2.16421 22.7837 2.5 22.3695 2.5H2.18726C1.77304 2.5 1.43726 2.16421 1.43726 1.75ZM1.43726 10.2348C1.43726 9.82063 1.77304 9.48485 2.18726 9.48485H15.2463C15.6606 9.48485 15.9963 9.82063 15.9963 10.2348C15.9963 10.6491 15.6606 10.9848 15.2463 10.9848H2.18726C1.77304 10.9848 1.43726 10.6491 1.43726 10.2348ZM2.18726 17.9697C1.77304 17.9697 1.43726 18.3055 1.43726 18.7197C1.43726 19.1339 1.77304 19.4697 2.18726 19.4697H22.3695C22.7837 19.4697 23.1195 19.1339 23.1195 18.7197C23.1195 18.3055 22.7837 17.9697 22.3695 17.9697H2.18726Z" fill="white"/>
<path d="M2.18726 0.5C1.4969 0.5 0.937256 1.05964 0.937256 1.75H1.93726C1.93726 1.61193 2.04918 1.5 2.18726 1.5V0.5ZM22.3695 0.5H2.18726V1.5H22.3695V0.5ZM23.6195 1.75C23.6195 1.05964 23.0598 0.5 22.3695 0.5V1.5C22.5076 1.5 22.6195 1.61193 22.6195 1.75H23.6195ZM22.3695 3C23.0598 3 23.6195 2.44036 23.6195 1.75H22.6195C22.6195 1.88807 22.5076 2 22.3695 2V3ZM2.18726 3H22.3695V2H2.18726V3ZM0.937256 1.75C0.937256 2.44036 1.4969 3 2.18726 3V2C2.04918 2 1.93726 1.88807 1.93726 1.75H0.937256ZM2.18726 8.98485C1.4969 8.98485 0.937256 9.54449 0.937256 10.2348H1.93726C1.93726 10.0968 2.04918 9.98485 2.18726 9.98485V8.98485ZM15.2463 8.98485H2.18726V9.98485H15.2463V8.98485ZM16.4963 10.2348C16.4963 9.54449 15.9367 8.98485 15.2463 8.98485V9.98485C15.3844 9.98485 15.4963 10.0968 15.4963 10.2348H16.4963ZM15.2463 11.4848C15.9367 11.4848 16.4963 10.9252 16.4963 10.2348H15.4963C15.4963 10.3729 15.3844 10.4848 15.2463 10.4848V11.4848ZM2.18726 11.4848H15.2463V10.4848H2.18726V11.4848ZM0.937256 10.2348C0.937256 10.9252 1.4969 11.4848 2.18726 11.4848V10.4848C2.04918 10.4848 1.93726 10.3729 1.93726 10.2348H0.937256ZM1.93726 18.7197C1.93726 18.5816 2.04918 18.4697 2.18726 18.4697V17.4697C1.4969 17.4697 0.937256 18.0293 0.937256 18.7197H1.93726ZM2.18726 18.9697C2.04918 18.9697 1.93726 18.8578 1.93726 18.7197H0.937256C0.937256 19.4101 1.4969 19.9697 2.18726 19.9697V18.9697ZM22.3695 18.9697H2.18726V19.9697H22.3695V18.9697ZM22.6195 18.7197C22.6195 18.8578 22.5076 18.9697 22.3695 18.9697V19.9697C23.0598 19.9697 23.6195 19.4101 23.6195 18.7197H22.6195ZM22.3695 18.4697C22.5076 18.4697 22.6195 18.5816 22.6195 18.7197H23.6195C23.6195 18.0293 23.0598 17.4697 22.3695 17.4697V18.4697ZM2.18726 18.4697H22.3695V17.4697H2.18726V18.4697Z" fill="white"/>
</svg>
