<svg width="44" height="41" viewBox="0 0 44 41" fill="none" xmlns="http://www.w3.org/2000/svg">
<rect y="0.0828857" width="44" height="40" rx="8" fill="#082143"/>
<path d="M22 14.5829V26.5829" stroke="white" stroke-linecap="round"/>
<path d="M30.5 14.5829V26.5829" stroke="white" stroke-linecap="round"/>
<path d="M13.5 14.5829V26.5829" stroke="white" stroke-linecap="round"/>
<path d="M30.5 26.5829C30.5 26.5829 29.5 24.5829 26 24.5829C22.5 24.5829 22 26.5829 22 26.5829" stroke="white" stroke-linecap="round"/>
<path d="M13.5 26.5829C13.5 26.5829 14.5 24.5829 18 24.5829C21.5 24.5829 22 26.5829 22 26.5829" stroke="white" stroke-linecap="round"/>
<path d="M30.5 14.5829C30.5 14.5829 29.5 12.5829 26 12.5829C22.5 12.5829 22 14.5829 22 14.5829" stroke="white" stroke-linecap="round"/>
<path d="M13.5 14.5829C13.5 14.5829 14.5 12.5829 18 12.5829C21.5 12.5829 22 14.5829 22 14.5829" stroke="white" stroke-linecap="round"/>
</svg>
