<svg width="44" height="41" viewBox="0 0 44 41" fill="none" xmlns="http://www.w3.org/2000/svg">
<rect y="0.0828857" width="44" height="40" rx="8" fill="#082143"/>
<g clip-path="url(#clip0_202_219)">
<path fill-rule="evenodd" clip-rule="evenodd" d="M18.6667 11.7496C18.6667 11.2893 18.2936 10.9162 17.8333 10.9162C17.3731 10.9162 17 11.2893 17 11.7496V12.5829H16.1667C15.5036 12.5829 14.8677 12.8463 14.3989 13.3151C13.9301 13.784 13.6667 14.4198 13.6667 15.0829V25.9162C13.6667 26.5793 13.9301 27.2151 14.3989 27.684C14.8677 28.1528 15.5036 28.4162 16.1667 28.4162H27.8333C28.4964 28.4162 29.1323 28.1528 29.6011 27.684C30.0699 27.2151 30.3333 26.5793 30.3333 25.9162V15.0829C30.3333 14.4198 30.0699 13.784 29.6011 13.3151C29.1323 12.8463 28.4964 12.5829 27.8333 12.5829H27.4167C26.9564 12.5829 26.5833 12.956 26.5833 13.4162C26.5833 13.8765 26.9564 14.2496 27.4167 14.2496H27.8333C28.0543 14.2496 28.2663 14.3373 28.4226 14.4936C28.5789 14.6499 28.6667 14.8619 28.6667 15.0829V17.5829H15.3333V15.0829C15.3333 14.8619 15.4211 14.6499 15.5774 14.4936C15.7337 14.3373 15.9456 14.2496 16.1667 14.2496H17V15.0829C17 15.5431 17.3731 15.9162 17.8333 15.9162C18.2936 15.9162 18.6667 15.5431 18.6667 15.0829V11.7496ZM15.5774 26.5055C15.4211 26.3492 15.3333 26.1372 15.3333 25.9162V19.2496H28.6667V25.9162C28.6667 26.1372 28.5789 26.3492 28.4226 26.5055C28.2663 26.6618 28.0543 26.7496 27.8333 26.7496H16.1667C15.9457 26.7496 15.7337 26.6618 15.5774 26.5055Z" fill="white"/>
<path d="M25.3333 11.7496C25.3333 11.2893 24.9602 10.9162 24.5 10.9162C24.0398 10.9162 23.6667 11.2893 23.6667 11.7496V12.5829H20.75C20.2898 12.5829 19.9167 12.956 19.9167 13.4162C19.9167 13.8765 20.2898 14.2496 20.75 14.2496H23.6667V15.0829C23.6667 15.5431 24.0398 15.9162 24.5 15.9162C24.9602 15.9162 25.3333 15.5431 25.3333 15.0829V11.7496Z" fill="white"/>
</g>
<defs>
<clipPath id="clip0_202_219">
<rect width="20" height="20" fill="white" transform="translate(12 10.0829)"/>
</clipPath>
</defs>
</svg>
