<svg width="44" height="41" viewBox="0 0 44 41" fill="none" xmlns="http://www.w3.org/2000/svg">
<g clip-path="url(#clip0_202_222)">
<path fill-rule="evenodd" clip-rule="evenodd" d="M22 16.7496C21.1159 16.7496 20.2681 17.1007 19.643 17.7259C19.0179 18.351 18.6667 19.1988 18.6667 20.0829C18.6667 20.9669 19.0179 21.8148 19.643 22.4399C20.2681 23.065 21.1159 23.4162 22 23.4162C22.8841 23.4162 23.7319 23.065 24.357 22.4399C24.9821 21.8148 25.3333 20.9669 25.3333 20.0829C25.3333 19.1988 24.9821 18.351 24.357 17.7259C23.7319 17.1007 22.8841 16.7496 22 16.7496ZM20.8215 18.9044C21.1341 18.5918 21.558 18.4162 22 18.4162C22.442 18.4162 22.866 18.5918 23.1785 18.9044C23.4911 19.2169 23.6667 19.6409 23.6667 20.0829C23.6667 20.5249 23.4911 20.9488 23.1785 21.2614C22.866 21.574 22.442 21.7496 22 21.7496C21.558 21.7496 21.1341 21.574 20.8215 21.2614C20.5089 20.9488 20.3333 20.5249 20.3333 20.0829C20.3333 19.6409 20.5089 19.2169 20.8215 18.9044Z" fill="white"/>
<path fill-rule="evenodd" clip-rule="evenodd" d="M21.1508 10.9162C20.7723 10.9162 20.4413 11.1714 20.345 11.5374L19.9227 13.1418L18.581 13.7074L17.5539 12.7936C17.2242 12.5002 16.7228 12.5149 16.4107 12.827L14.7441 14.4936C14.4422 14.7955 14.4173 15.2768 14.6865 15.6083L15.5866 16.7165L15.0346 18.0744L13.4772 18.438C13.1001 18.5261 12.8333 18.8623 12.8333 19.2496V20.9162C12.8333 21.292 13.0848 21.6213 13.4473 21.7202L15.0571 22.1593L15.6242 23.5046L14.7114 24.5283C14.4174 24.8579 14.4317 25.3598 14.7441 25.6721L16.4107 27.3388C16.7131 27.6411 17.1951 27.6656 17.5265 27.3955L18.6344 26.4923L19.959 27.0372L20.3587 28.6202C20.4521 28.9903 20.785 29.2496 21.1667 29.2496H22.8333C23.2148 29.2496 23.5476 28.9905 23.6412 28.6206L24.0419 27.0369L25.4108 26.47C25.5486 26.5855 25.7066 26.7211 25.8638 26.858C26.02 26.994 26.1652 27.1222 26.2715 27.2165C26.3245 27.2636 26.3678 27.3021 26.3976 27.3288L26.4429 27.3693C26.7724 27.6649 27.2762 27.6519 27.5893 27.3388L29.2559 25.6721C29.5626 25.3654 29.5828 24.8747 29.3022 24.5439L28.3945 23.4735L28.9562 22.1167L30.5429 21.7044C30.9102 21.609 31.1667 21.2774 31.1667 20.8979V19.2496C31.1667 18.8685 30.9081 18.5359 30.5388 18.4419L28.9619 18.0408L28.4016 16.6873L29.3031 15.6208C29.5828 15.29 29.5623 14.8 29.2559 14.4936L27.5893 12.827C27.2817 12.5194 26.7892 12.5001 26.4585 12.7828L25.3999 13.6876L23.9988 13.1115L23.5851 11.5377C23.4889 11.1715 23.1578 10.9162 22.7792 10.9162H21.1508ZM27.5346 25.0364L26.9645 25.6065L26.9583 25.6011C26.6505 25.3331 26.2541 24.994 26.0305 24.8341C25.7965 24.6668 25.4927 24.6321 25.227 24.7421L23.0178 25.6571C22.7746 25.7579 22.5934 25.9675 22.5288 26.2226L22.1846 27.5829H21.8157L21.4721 26.2222C21.4075 25.9662 21.2254 25.756 20.9812 25.6555L18.8095 24.7622C18.5267 24.6459 18.203 24.6938 17.966 24.887L17.057 25.628L16.4791 25.0501L17.2186 24.2209C17.4327 23.9808 17.4895 23.6389 17.3646 23.3425L16.4354 21.1383C16.336 20.9025 16.1337 20.7255 15.8868 20.6581L14.5 20.2798V19.9107L15.8336 19.5994C16.0971 19.5379 16.3143 19.3523 16.4162 19.1017L17.3162 16.8875C17.4306 16.6059 17.3827 16.2843 17.191 16.0483L16.4539 15.1408L17.0334 14.5613L17.8661 15.3022C18.1062 15.5157 18.4476 15.5723 18.7437 15.4474L20.9479 14.5183C21.1861 14.4179 21.3642 14.2125 21.4301 13.9625L21.7932 12.5829H22.1366L22.4924 13.9364C22.5588 14.1891 22.7398 14.3959 22.9814 14.4953L25.2373 15.4228C25.5265 15.5417 25.8579 15.4887 26.0956 15.2855L26.9557 14.5504L27.5355 15.1302L26.8011 15.9991C26.5998 16.2372 26.5483 16.5677 26.6675 16.8558L27.5817 19.0641C27.6822 19.307 27.8915 19.4882 28.1462 19.553L29.5 19.8974V20.2534L28.1354 20.608C27.8825 20.6737 27.675 20.8543 27.5751 21.0958L26.6601 23.3058C26.5406 23.5943 26.5925 23.9254 26.7944 24.1635L27.5346 25.0364Z" fill="white"/>
</g>
<defs>
<clipPath id="clip0_202_222">
<rect width="20" height="20" fill="white" transform="translate(12 10.0829)"/>
</clipPath>
</defs>
</svg>
