<svg width="25" height="24" viewBox="0 0 25 24" fill="none" xmlns="http://www.w3.org/2000/svg">
<path d="M12.1592 14L11.8056 14.3536L12.1592 14.7071L12.5127 14.3536L12.1592 14ZM12.6592 5C12.6592 4.72386 12.4353 4.5 12.1592 4.5C11.883 4.5 11.6592 4.72386 11.6592 5L12.6592 5ZM6.80563 9.35355L11.8056 14.3536L12.5127 13.6464L7.51273 8.64645L6.80563 9.35355ZM12.5127 14.3536L17.5127 9.35355L16.8056 8.64645L11.8056 13.6464L12.5127 14.3536ZM12.6592 14L12.6592 5L11.6592 5L11.6592 14L12.6592 14Z" fill="#FF7D04"/>
<path d="M5.15918 16L5.15918 17C5.15918 18.1046 6.05461 19 7.15918 19L17.1592 19C18.2637 19 19.1592 18.1046 19.1592 17V16" stroke="#FF7D04"/>
</svg>
