<svg width="14" height="10" viewBox="0 0 14 10" fill="none" xmlns="http://www.w3.org/2000/svg">
<path d="M13.23 4.2463C13.3958 4.45302 13.4876 4.72159 13.4876 5.00006C13.4876 5.27853 13.3958 5.5471 13.23 5.75382C12.18 7.02509 9.78997 9.5001 6.99997 9.5001C4.20997 9.5001 1.81997 7.02509 0.769968 5.75382C0.604128 5.5471 0.512329 5.27853 0.512329 5.00006C0.512329 4.72159 0.604128 4.45302 0.769968 4.2463C1.81997 2.97503 4.20997 0.5 6.99997 0.5C9.78997 0.5 12.18 2.97503 13.23 4.2463Z" stroke="#082143" stroke-linecap="round" stroke-linejoin="round"/>
<path d="M7 7C8.10457 7 9 6.10457 9 5C9 3.89543 8.10457 3 7 3C5.89543 3 5 3.89543 5 5C5 6.10457 5.89543 7 7 7Z" stroke="#082143" stroke-linecap="round" stroke-linejoin="round"/>
</svg>
