<svg width="44" height="41" viewBox="0 0 44 41" fill="none" xmlns="http://www.w3.org/2000/svg">
<rect y="0.0828857" width="44" height="40" rx="8" fill="white"/>
<path fill-rule="evenodd" clip-rule="evenodd" d="M22 12.3143C21.2386 12.3143 20.4918 12.523 19.8406 12.9175L15.674 15.4425C15.0612 15.8138 14.5546 16.3369 14.203 16.9611C13.8514 17.5853 13.6667 18.2896 13.6667 19.0061V24.2494C13.6667 25.3545 14.1057 26.4143 14.8871 27.1957C15.6685 27.9771 16.7283 28.4161 17.8333 28.4161H26.1667C27.2717 28.4161 28.3315 27.9771 29.1129 27.1957C29.8943 26.4143 30.3333 25.3545 30.3333 24.2494V19.0052C30.3332 18.289 30.1484 17.5846 29.7968 16.9606C29.4451 16.3366 28.9386 15.8138 28.326 15.4426L24.1594 12.9175C23.5082 12.523 22.7614 12.3143 22 12.3143ZM20.7044 14.3429C21.0951 14.1062 21.5432 13.981 22 13.981C22.4568 13.981 22.9049 14.1062 23.2956 14.3429L27.4623 16.8679C27.8298 17.0906 28.1338 17.4044 28.3447 17.7788C28.5556 18.1531 28.6665 18.5755 28.6667 19.0052V24.2494C28.6667 24.9124 28.4033 25.5483 27.9344 26.0172C27.4656 26.486 26.8297 26.7494 26.1667 26.7494H25.3333V24.2494C25.3333 23.3653 24.9821 22.5175 24.357 21.8924C23.7319 21.2673 22.8841 20.9161 22 20.9161C21.1159 20.9161 20.2681 21.2673 19.643 21.8924C19.0179 22.5175 18.6667 23.3653 18.6667 24.2494V26.7494H17.8333C17.1703 26.7494 16.5344 26.486 16.0656 26.0172C15.5967 25.5483 15.3333 24.9124 15.3333 24.2494V19.0061C15.3333 18.5762 15.4442 18.1536 15.6551 17.779C15.8661 17.4045 16.1701 17.0907 16.5377 16.8679L20.7044 14.3429ZM23.1785 23.0709C23.4911 23.3835 23.6667 23.8074 23.6667 24.2494V26.7494H20.3333V24.2494C20.3333 23.8074 20.5089 23.3835 20.8215 23.0709C21.134 22.7583 21.558 22.5827 22 22.5827C22.442 22.5827 22.8659 22.7583 23.1785 23.0709Z" fill="#082143"/>
</svg>
