<svg width="18" height="17" viewBox="0 0 18 17" fill="none" xmlns="http://www.w3.org/2000/svg">
<path d="M9.19539 16.9697C4.42677 16.9697 0.561279 13.1711 0.561279 8.48488C0.561279 3.7987 4.42677 3.05176e-05 9.19539 3.05176e-05C13.964 3.05176e-05 17.8295 3.7987 17.8295 8.48488C17.8295 13.1711 13.964 16.9697 9.19539 16.9697ZM9.19539 15.2728C11.0273 15.2728 12.7842 14.5576 14.0796 13.2846C15.3749 12.0117 16.1027 10.2851 16.1027 8.48488C16.1027 6.68462 15.3749 4.9581 14.0796 3.68512C12.7842 2.41215 11.0273 1.697 9.19539 1.697C7.36346 1.697 5.60657 2.41215 4.3112 3.68512C3.01583 4.9581 2.2881 6.68462 2.2881 8.48488C2.2881 10.2851 3.01583 12.0117 4.3112 13.2846C5.60657 14.5576 7.36346 15.2728 9.19539 15.2728V15.2728ZM8.33198 4.24245H10.0588V5.93942H8.33198V4.24245ZM8.33198 7.63639H10.0588V12.7273H8.33198V7.63639Z" fill="white"/>
</svg>
