<svg width="19" height="20" viewBox="0 0 19 20" fill="none" xmlns="http://www.w3.org/2000/svg">
<path d="M16.6785 13.6363H18.5133V15.4545H0.165771V13.6363H2.00052V7.2727C2.00052 5.34385 2.77373 3.494 4.15006 2.1301C5.52639 0.766201 7.39309 -3.05176e-05 9.33951 -3.05176e-05C11.2859 -3.05176e-05 13.1526 0.766201 14.529 2.1301C15.9053 3.494 16.6785 5.34385 16.6785 7.2727V13.6363ZM14.8438 13.6363V7.2727C14.8438 5.82606 14.2638 4.43868 13.2316 3.41575C12.1994 2.39283 10.7993 1.81815 9.33951 1.81815C7.87969 1.81815 6.47967 2.39283 5.44742 3.41575C4.41518 4.43868 3.83527 5.82606 3.83527 7.2727V13.6363H14.8438ZM6.58739 17.2727H12.0916V19.0909H6.58739V17.2727Z" fill="white"/>
</svg>
