<svg width="99" height="25" viewBox="0 0 99 25" fill="none" xmlns="http://www.w3.org/2000/svg">
<rect width="99" height="25" rx="2" fill="#456797"/>
<path d="M20.2531 15.52V12.928H17.7091V12.184H20.2531V9.664H21.0211V12.184H23.5651V12.928H21.0211V15.52H20.2531ZM28.3585 16V7.54H29.1265L34.2265 14.344V7.54H35.1385V16H34.3945L29.2825 9.172V16H28.3585ZM37.7813 18.16L38.7773 15.904L36.3173 10.168H37.3733L39.3053 14.896L41.2493 10.168H42.2693L38.8013 18.16H37.7813ZM45.7305 16.108C45.0425 16.108 44.5265 15.928 44.1825 15.568C43.8385 15.2 43.6665 14.672 43.6665 13.984V10.924H42.5265V10.168H43.6665V8.38H44.6385V10.168H46.4865V10.924H44.6385V13.888C44.6385 14.344 44.7345 14.692 44.9265 14.932C45.1185 15.164 45.4305 15.28 45.8625 15.28C45.9905 15.28 46.1185 15.264 46.2465 15.232C46.3745 15.2 46.4905 15.168 46.5945 15.136L46.7625 15.88C46.6585 15.936 46.5065 15.988 46.3065 16.036C46.1065 16.084 45.9145 16.108 45.7305 16.108ZM49.7735 16.108C49.0855 16.108 48.5695 15.928 48.2255 15.568C47.8815 15.2 47.7095 14.672 47.7095 13.984V10.924H46.5695V10.168H47.7095V8.38H48.6815V10.168H50.5295V10.924H48.6815V13.888C48.6815 14.344 48.7775 14.692 48.9695 14.932C49.1615 15.164 49.4735 15.28 49.9055 15.28C50.0335 15.28 50.1615 15.264 50.2895 15.232C50.4175 15.2 50.5335 15.168 50.6375 15.136L50.8055 15.88C50.7015 15.936 50.5495 15.988 50.3495 16.036C50.1495 16.084 49.9575 16.108 49.7735 16.108ZM57.0508 16.108C56.3628 16.108 55.8468 15.928 55.5028 15.568C55.1588 15.2 54.9868 14.672 54.9868 13.984V10.924H53.8468V10.168H54.9868V8.38H55.9588V10.168H57.8068V10.924H55.9588V13.888C55.9588 14.344 56.0548 14.692 56.2468 14.932C56.4388 15.164 56.7508 15.28 57.1828 15.28C57.3108 15.28 57.4388 15.264 57.5668 15.232C57.6948 15.2 57.8108 15.168 57.9148 15.136L58.0828 15.88C57.9788 15.936 57.8268 15.988 57.6268 16.036C57.4268 16.084 57.2348 16.108 57.0508 16.108ZM61.4755 16.108C60.5555 16.108 59.8275 15.84 59.2915 15.304C58.7555 14.76 58.4875 14.024 58.4875 13.096C58.4875 12.496 58.6075 11.968 58.8475 11.512C59.0875 11.048 59.4155 10.692 59.8315 10.444C60.2555 10.188 60.7435 10.06 61.2955 10.06C62.0875 10.06 62.7075 10.316 63.1555 10.828C63.6035 11.332 63.8275 12.028 63.8275 12.916V13.288H59.4355C59.4675 13.952 59.6595 14.46 60.0115 14.812C60.3635 15.156 60.8515 15.328 61.4755 15.328C61.8275 15.328 62.1635 15.276 62.4835 15.172C62.8035 15.06 63.1075 14.88 63.3955 14.632L63.7315 15.316C63.4675 15.564 63.1315 15.76 62.7235 15.904C62.3155 16.04 61.8995 16.108 61.4755 16.108ZM61.3195 10.78C60.7675 10.78 60.3315 10.952 60.0115 11.296C59.6915 11.64 59.5035 12.092 59.4475 12.652H62.9875C62.9635 12.06 62.8075 11.6 62.5195 11.272C62.2395 10.944 61.8395 10.78 61.3195 10.78ZM65.2583 16V10.168H66.2063V11.152C66.3823 10.8 66.6263 10.532 66.9383 10.348C67.2503 10.156 67.6143 10.06 68.0303 10.06C68.9423 10.06 69.5263 10.456 69.7823 11.248C69.9583 10.88 70.2183 10.592 70.5623 10.384C70.9063 10.168 71.3023 10.06 71.7503 10.06C73.0463 10.06 73.6943 10.828 73.6943 12.364V16H72.7223V12.412C72.7223 11.876 72.6263 11.484 72.4343 11.236C72.2503 10.98 71.9423 10.852 71.5103 10.852C71.0383 10.852 70.6623 11.02 70.3823 11.356C70.1023 11.692 69.9623 12.14 69.9623 12.7V16H68.9903V12.412C68.9903 11.876 68.8943 11.484 68.7023 11.236C68.5183 10.98 68.2103 10.852 67.7783 10.852C67.2983 10.852 66.9183 11.02 66.6383 11.356C66.3663 11.692 66.2303 12.14 66.2303 12.7V16H65.2583ZM77.3476 16.108C76.9476 16.108 76.5876 16.032 76.2676 15.88C75.9556 15.72 75.7076 15.504 75.5236 15.232C75.3396 14.96 75.2476 14.656 75.2476 14.32C75.2476 13.896 75.3556 13.56 75.5716 13.312C75.7956 13.064 76.1596 12.888 76.6636 12.784C77.1756 12.672 77.8716 12.616 78.7516 12.616H79.1356V12.244C79.1356 11.748 79.0316 11.392 78.8236 11.176C78.6236 10.952 78.2996 10.84 77.8516 10.84C77.4996 10.84 77.1596 10.892 76.8316 10.996C76.5036 11.092 76.1676 11.252 75.8236 11.476L75.4876 10.768C75.7916 10.552 76.1596 10.38 76.5916 10.252C77.0316 10.124 77.4516 10.06 77.8516 10.06C78.6036 10.06 79.1596 10.244 79.5196 10.612C79.8876 10.98 80.0716 11.552 80.0716 12.328V16H79.1596V14.992C79.0076 15.336 78.7716 15.608 78.4516 15.808C78.1396 16.008 77.7716 16.108 77.3476 16.108ZM77.5036 15.376C77.9836 15.376 78.3756 15.212 78.6796 14.884C78.9836 14.548 79.1356 14.124 79.1356 13.612V13.252H78.7636C78.1156 13.252 77.6036 13.284 77.2276 13.348C76.8596 13.404 76.5996 13.508 76.4476 13.66C76.3036 13.804 76.2316 14.004 76.2316 14.26C76.2316 14.588 76.3436 14.856 76.5676 15.064C76.7996 15.272 77.1116 15.376 77.5036 15.376Z" fill="white"/>
</svg>
