<svg width="44" height="41" viewBox="0 0 44 41" fill="none" xmlns="http://www.w3.org/2000/svg">
<path fill-rule="evenodd" clip-rule="evenodd" d="M22 12.5829C20.8949 12.5829 19.8351 13.0219 19.0537 13.8033C18.2723 14.5847 17.8333 15.6445 17.8333 16.7496C17.8333 17.8546 18.2723 18.9144 19.0537 19.6958C19.1087 19.7508 19.165 19.8041 19.2227 19.8556C18.5089 20.1827 17.8518 20.6363 17.286 21.2022C16.0357 22.4524 15.3333 24.1481 15.3333 25.9162V26.7496C15.3333 27.2098 15.7064 27.5829 16.1667 27.5829C16.6269 27.5829 17 27.2098 17 26.7496V25.9162C17 24.5901 17.5268 23.3184 18.4645 22.3807C19.4022 21.443 20.6739 20.9162 22 20.9162C23.3261 20.9162 24.5979 21.443 25.5355 22.3807C26.4732 23.3184 27 24.5901 27 25.9162V26.7496C27 27.2098 27.3731 27.5829 27.8333 27.5829C28.2936 27.5829 28.6667 27.2098 28.6667 26.7496V25.9162C28.6667 24.1481 27.9643 22.4524 26.714 21.2022C26.1482 20.6363 25.4911 20.1827 24.7773 19.8556C24.835 19.8041 24.8913 19.7508 24.9463 19.6958C25.7277 18.9144 26.1667 17.8546 26.1667 16.7496C26.1667 15.6445 25.7277 14.5847 24.9463 13.8033C24.1649 13.0219 23.1051 12.5829 22 12.5829ZM20.2322 14.9818C20.7011 14.5129 21.337 14.2496 22 14.2496C22.663 14.2496 23.2989 14.5129 23.7678 14.9818C24.2366 15.4506 24.5 16.0865 24.5 16.7496C24.5 17.4126 24.2366 18.0485 23.7678 18.5173C23.2989 18.9862 22.663 19.2496 22 19.2496C21.337 19.2496 20.7011 18.9862 20.2322 18.5173C19.7634 18.0485 19.5 17.4126 19.5 16.7496C19.5 16.0865 19.7634 15.4506 20.2322 14.9818Z" fill="white"/>
</svg>
