<svg width="117" height="19" viewBox="0 0 117 19" fill="none" xmlns="http://www.w3.org/2000/svg">
<rect x="0.5" y="0.5" width="116" height="18" rx="9" fill="white" stroke="#420E08"/>
<path d="M50.1676 11.1705H51.4631L52.375 12.3594L52.8054 12.8878L54.2585 14.7841H52.9119L51.9403 13.5185L51.608 13.0582L50.1676 11.1705ZM54.5398 9.63636C54.5398 10.5682 54.3693 11.3693 54.0284 12.0398C53.6875 12.7074 53.2202 13.2216 52.6264 13.5824C52.0355 13.9403 51.3636 14.1193 50.6108 14.1193C49.8551 14.1193 49.1804 13.9403 48.5866 13.5824C47.9957 13.2216 47.5298 12.706 47.1889 12.0355C46.848 11.3651 46.6776 10.5653 46.6776 9.63636C46.6776 8.70455 46.848 7.90483 47.1889 7.23722C47.5298 6.56676 47.9957 6.05256 48.5866 5.6946C49.1804 5.33381 49.8551 5.15341 50.6108 5.15341C51.3636 5.15341 52.0355 5.33381 52.6264 5.6946C53.2202 6.05256 53.6875 6.56676 54.0284 7.23722C54.3693 7.90483 54.5398 8.70455 54.5398 9.63636ZM53.2358 9.63636C53.2358 8.92614 53.1207 8.32812 52.8906 7.84233C52.6634 7.35369 52.3509 6.98438 51.9531 6.73438C51.5582 6.48153 51.1108 6.35511 50.6108 6.35511C50.108 6.35511 49.6591 6.48153 49.2642 6.73438C48.8693 6.98438 48.5568 7.35369 48.3267 7.84233C48.0994 8.32812 47.9858 8.92614 47.9858 9.63636C47.9858 10.3466 48.0994 10.946 48.3267 11.4347C48.5568 11.9205 48.8693 12.2898 49.2642 12.5426C49.6591 12.7926 50.108 12.9176 50.6108 12.9176C51.1108 12.9176 51.5582 12.7926 51.9531 12.5426C52.3509 12.2898 52.6634 11.9205 52.8906 11.4347C53.1207 10.946 53.2358 10.3466 53.2358 9.63636ZM60.2255 11.2855V7.45455H61.5039V14H60.2511V12.8665H60.1829C60.0323 13.2159 59.7908 13.5071 59.4585 13.7401C59.1289 13.9702 58.7184 14.0852 58.2269 14.0852C57.8065 14.0852 57.4343 13.9929 57.1104 13.8082C56.7894 13.6207 56.5366 13.3438 56.3519 12.9773C56.1701 12.6108 56.0792 12.1577 56.0792 11.6179V7.45455H57.3533V11.4645C57.3533 11.9105 57.4769 12.2656 57.7241 12.5298C57.9712 12.794 58.2923 12.9261 58.6871 12.9261C58.9258 12.9261 59.163 12.8665 59.3988 12.7472C59.6374 12.6278 59.8349 12.4474 59.9911 12.206C60.1502 11.9645 60.2283 11.6577 60.2255 11.2855ZM63.2159 14V7.45455H64.4901V14H63.2159ZM63.8594 6.4446C63.6378 6.4446 63.4474 6.37074 63.2884 6.22301C63.1321 6.07244 63.054 5.89347 63.054 5.68608C63.054 5.47585 63.1321 5.29687 63.2884 5.14915C63.4474 4.99858 63.6378 4.9233 63.8594 4.9233C64.081 4.9233 64.2699 4.99858 64.4261 5.14915C64.5852 5.29687 64.6648 5.47585 64.6648 5.68608C64.6648 5.89347 64.5852 6.07244 64.4261 6.22301C64.2699 6.37074 64.081 6.4446 63.8594 6.4446ZM66.0678 14V13.1264L69.6133 8.62216V8.5625H66.1829V7.45455H71.2028V8.38352L67.7937 12.8324V12.892H71.3221V14H66.0678Z" fill="#420E08"/>
</svg>
