<svg width="15" height="15" viewBox="0 0 15 15" fill="none" xmlns="http://www.w3.org/2000/svg">
<path d="M7.19883 13.3977C3.78192 13.3977 1 10.6158 1 7.19883C1 3.78192 3.78192 1 7.19883 1C10.6158 1 13.3977 3.78192 13.3977 7.19883C13.3977 10.6158 10.6158 13.3977 7.19883 13.3977ZM7.19883 1.90715C4.27782 1.90715 1.90715 4.28387 1.90715 7.19883C1.90715 10.1138 4.27782 12.4905 7.19883 12.4905C10.1198 12.4905 12.4905 10.1138 12.4905 7.19883C12.4905 4.28387 10.1198 1.90715 7.19883 1.90715Z" fill="#082143" stroke="#082143" stroke-width="0.2"/>
<path d="M13.5479 14.0024C13.433 14.0024 13.3181 13.96 13.2274 13.8693L12.0179 12.6598C11.8425 12.4844 11.8425 12.1941 12.0179 12.0187C12.1933 11.8433 12.4836 11.8433 12.6589 12.0187L13.8685 13.2283C14.0438 13.4036 14.0438 13.6939 13.8685 13.8693C13.7778 13.96 13.6628 14.0024 13.5479 14.0024Z" fill="#082143" stroke="#082143" stroke-width="0.2"/>
</svg>
