<svg width="221" height="27" viewBox="0 0 221 27" fill="none" xmlns="http://www.w3.org/2000/svg">
<rect x="0.5" y="0.5" width="220" height="26" rx="1.5" fill="#456797" fill-opacity="0.13" stroke="#082143"/>
<path d="M38.41 18.126C37.6353 18.126 36.9353 18.028 36.31 17.832C35.6847 17.6267 35.1433 17.3327 34.686 16.95L35.092 16.026C35.568 16.39 36.0673 16.6607 36.59 16.838C37.1127 17.0153 37.7193 17.104 38.41 17.104C39.25 17.104 39.8707 16.95 40.272 16.642C40.6827 16.3247 40.888 15.9093 40.888 15.396C40.888 14.9853 40.7387 14.6587 40.44 14.416C40.1507 14.1733 39.6607 13.982 38.97 13.842L37.514 13.548C36.6367 13.3613 35.9787 13.058 35.54 12.638C35.1107 12.2087 34.896 11.6393 34.896 10.93C34.896 10.342 35.0453 9.82867 35.344 9.39C35.652 8.95133 36.0767 8.61067 36.618 8.368C37.1593 8.12533 37.7847 8.004 38.494 8.004C39.1567 8.004 39.7727 8.11133 40.342 8.326C40.9113 8.53133 41.392 8.83 41.784 9.222L41.378 10.118C40.958 9.73533 40.5147 9.46 40.048 9.292C39.5813 9.11467 39.0587 9.026 38.48 9.026C37.7427 9.026 37.1547 9.19867 36.716 9.544C36.2773 9.88 36.058 10.328 36.058 10.888C36.058 11.336 36.1933 11.6907 36.464 11.952C36.744 12.2133 37.1967 12.4047 37.822 12.526L39.278 12.834C40.2207 13.03 40.916 13.3287 41.364 13.73C41.8213 14.122 42.05 14.6587 42.05 15.34C42.05 15.8907 41.9007 16.376 41.602 16.796C41.3127 17.216 40.8927 17.5427 40.342 17.776C39.8007 18.0093 39.1567 18.126 38.41 18.126ZM44.3073 18.672L43.6213 18.28L44.1253 17.426C43.7613 17.118 43.4766 16.726 43.2713 16.25C43.0753 15.7647 42.9773 15.214 42.9773 14.598C42.9773 13.8793 43.1079 13.2587 43.3693 12.736C43.6399 12.204 44.0179 11.7933 44.5033 11.504C44.9886 11.2147 45.5626 11.07 46.2253 11.07C46.7479 11.07 47.2239 11.1633 47.6533 11.35L48.1433 10.51L48.8293 10.916L48.3253 11.77C48.6893 12.078 48.9693 12.47 49.1653 12.946C49.3706 13.422 49.4733 13.9727 49.4733 14.598C49.4733 15.3167 49.3379 15.942 49.0673 16.474C48.8059 16.9967 48.4279 17.4027 47.9333 17.692C47.4479 17.9813 46.8786 18.126 46.2253 18.126C45.6933 18.126 45.2173 18.028 44.7973 17.832L44.3073 18.672ZM44.1253 14.598C44.1253 15.4007 44.3026 16.0307 44.6573 16.488L47.1633 12.19C46.8926 12.05 46.5799 11.98 46.2253 11.98C45.5813 11.98 45.0679 12.204 44.6853 12.652C44.3119 13.1 44.1253 13.7487 44.1253 14.598ZM46.2253 17.216C46.8599 17.216 47.3686 16.992 47.7513 16.544C48.1339 16.0867 48.3253 15.438 48.3253 14.598C48.3253 13.786 48.1433 13.1513 47.7793 12.694L45.2733 17.006C45.5533 17.146 45.8706 17.216 46.2253 17.216ZM50.8966 18V8.13H52.0306V14.22H52.0586L55.2086 11.196H56.6506L53.2346 14.472L56.9446 18H55.5026L52.0586 14.808H52.0306V18H50.8966ZM57.585 18V16.572H59.013V18H57.585ZM60.4905 18V16.572H61.9185V18H60.4905ZM63.3961 18V16.572H64.8241V18H63.3961Z" fill="#082143"/>
<path d="M17.1988 19.3977C13.7819 19.3977 11 16.6158 11 13.1988C11 9.78192 13.7819 7 17.1988 7C20.6158 7 23.3977 9.78192 23.3977 13.1988C23.3977 16.6158 20.6158 19.3977 17.1988 19.3977ZM17.1988 7.90715C14.2778 7.90715 11.9071 10.2839 11.9071 13.1988C11.9071 16.1138 14.2778 18.4905 17.1988 18.4905C20.1198 18.4905 22.4905 16.1138 22.4905 13.1988C22.4905 10.2839 20.1198 7.90715 17.1988 7.90715Z" fill="#082143" stroke="#082143" stroke-width="0.2"/>
<path d="M23.5479 20.0024C23.433 20.0024 23.3181 19.96 23.2274 19.8693L22.0179 18.6598C21.8425 18.4844 21.8425 18.1941 22.0179 18.0187C22.1933 17.8433 22.4836 17.8433 22.6589 18.0187L23.8685 19.2283C24.0438 19.4036 24.0438 19.6939 23.8685 19.8693C23.7778 19.96 23.6628 20.0024 23.5479 20.0024Z" fill="#082143" stroke="#082143" stroke-width="0.2"/>
</svg>
