<svg width="33" height="33" viewBox="0 0 33 33" fill="none" xmlns="http://www.w3.org/2000/svg">
<rect x="0.5" y="0.5" width="32" height="32" fill="white" stroke="#082143"/>
<path d="M20 13H26V22C26 22.9428 26 23.4142 25.7071 23.7071C25.4142 24 24.9428 24 24 24H20V13Z" stroke="#082143" stroke-linecap="round"/>
<path d="M8 13H14V24H10C9.05719 24 8.58579 24 8.29289 23.7071C8 23.4142 8 22.9428 8 22V13Z" stroke="#082143" stroke-linecap="round"/>
<rect x="14" y="13" width="6" height="11" stroke="#082143" stroke-linecap="round"/>
<path d="M8 10C8 9.05719 8 8.58579 8.29289 8.29289C8.58579 8 9.05719 8 10 8H24C24.9428 8 25.4142 8 25.7071 8.29289C26 8.58579 26 9.05719 26 10V13H8V10Z" stroke="#082143" stroke-linecap="round"/>
</svg>
