<svg width="117" height="19" viewBox="0 0 117 19" fill="none" xmlns="http://www.w3.org/2000/svg">
<rect x="0.5" y="0.5" width="116" height="18" rx="9" fill="white" stroke="#708525"/>
<path d="M26.571 5.27273H27.892V11.0128C27.892 11.6236 27.7486 12.1648 27.4616 12.6364C27.1747 13.1051 26.7713 13.4744 26.2514 13.7443C25.7315 14.0114 25.1222 14.1449 24.4233 14.1449C23.7273 14.1449 23.1193 14.0114 22.5994 13.7443C22.0795 13.4744 21.6761 13.1051 21.3892 12.6364C21.1023 12.1648 20.9588 11.6236 20.9588 11.0128V5.27273H22.2756V10.9062C22.2756 11.3011 22.3622 11.652 22.5355 11.9588C22.7116 12.2656 22.9602 12.5071 23.2812 12.6832C23.6023 12.8565 23.983 12.9432 24.4233 12.9432C24.8665 12.9432 25.2486 12.8565 25.5696 12.6832C25.8935 12.5071 26.1406 12.2656 26.3111 11.9588C26.4844 11.652 26.571 11.3011 26.571 10.9062V5.27273ZM30.9783 10.1136V14H29.7042V7.45455H30.9272V8.51989H31.0082C31.1587 8.1733 31.3945 7.89489 31.7156 7.68466C32.0394 7.47443 32.4471 7.36932 32.9386 7.36932C33.3846 7.36932 33.7752 7.46307 34.1104 7.65057C34.4457 7.83523 34.7056 8.1108 34.8903 8.47727C35.0749 8.84375 35.1673 9.29687 35.1673 9.83665V14H33.8931V9.99006C33.8931 9.51562 33.7695 9.14489 33.5224 8.87784C33.2752 8.60795 32.9357 8.47301 32.5039 8.47301C32.2085 8.47301 31.9457 8.53693 31.7156 8.66477C31.4883 8.79261 31.3079 8.98011 31.1744 9.22727C31.0437 9.47159 30.9783 9.76705 30.9783 10.1136ZM39.3263 14.1278C38.7979 14.1278 38.3263 13.9929 37.9116 13.723C37.4996 13.4503 37.1758 13.0625 36.94 12.5597C36.707 12.054 36.5906 11.4474 36.5906 10.7401C36.5906 10.0327 36.7085 9.42756 36.9442 8.92472C37.1829 8.42187 37.5096 8.03693 37.9244 7.76989C38.3391 7.50284 38.8093 7.36932 39.3349 7.36932C39.7411 7.36932 40.0678 7.4375 40.315 7.57386C40.565 7.70739 40.7582 7.86364 40.8945 8.04261C41.0337 8.22159 41.1417 8.37926 41.2184 8.51562H41.2951V5.27273H42.5692V14H41.3249V12.9815H41.2184C41.1417 13.1207 41.0309 13.2798 40.886 13.4588C40.744 13.6378 40.5479 13.794 40.2979 13.9276C40.0479 14.0611 39.7241 14.1278 39.3263 14.1278ZM39.6076 13.0412C39.9741 13.0412 40.2837 12.9446 40.5366 12.7514C40.7923 12.5554 40.9854 12.2841 41.1161 11.9375C41.2496 11.5909 41.3164 11.1875 41.3164 10.7273C41.3164 10.2727 41.2511 9.875 41.1204 9.53409C40.9897 9.19318 40.7979 8.92756 40.5451 8.73722C40.2923 8.54687 39.9798 8.4517 39.6076 8.4517C39.2241 8.4517 38.9045 8.55114 38.6488 8.75C38.3931 8.94886 38.1999 9.22017 38.0692 9.56392C37.9414 9.90767 37.8775 10.2955 37.8775 10.7273C37.8775 11.1648 37.9428 11.5582 38.0735 11.9077C38.2042 12.2571 38.3974 12.5341 38.6531 12.7386C38.9116 12.9403 39.2298 13.0412 39.6076 13.0412ZM47.2088 14.1321C46.5639 14.1321 46.0085 13.9943 45.5426 13.7188C45.0795 13.4403 44.7216 13.0497 44.4688 12.5469C44.2188 12.0412 44.0938 11.4489 44.0938 10.7699C44.0938 10.0994 44.2188 9.50852 44.4688 8.99716C44.7216 8.4858 45.0739 8.08665 45.5256 7.79972C45.9801 7.51278 46.5114 7.36932 47.1193 7.36932C47.4886 7.36932 47.8466 7.4304 48.1932 7.55256C48.5398 7.67472 48.8509 7.86648 49.1264 8.12784C49.402 8.3892 49.6193 8.72869 49.7784 9.14631C49.9375 9.56108 50.017 10.0653 50.017 10.6591V11.1108H44.8139V10.1562H48.7685C48.7685 9.82102 48.7003 9.52415 48.5639 9.26562C48.4276 9.00426 48.2358 8.7983 47.9886 8.64773C47.7443 8.49716 47.4574 8.42188 47.1278 8.42188C46.7699 8.42188 46.4574 8.50994 46.1903 8.68608C45.9261 8.85937 45.7216 9.08665 45.5767 9.3679C45.4347 9.64631 45.3636 9.94886 45.3636 10.2756V11.0213C45.3636 11.4588 45.4403 11.831 45.5938 12.1378C45.75 12.4446 45.9673 12.679 46.2457 12.8409C46.5241 13 46.8494 13.0795 47.2216 13.0795C47.4631 13.0795 47.6832 13.0455 47.8821 12.9773C48.081 12.9062 48.2528 12.8011 48.3977 12.6619C48.5426 12.5227 48.6534 12.3509 48.7301 12.1463L49.9361 12.3636C49.8395 12.7187 49.6662 13.0298 49.4162 13.2969C49.169 13.5611 48.858 13.767 48.483 13.9148C48.1108 14.0597 47.6861 14.1321 47.2088 14.1321ZM51.4308 14V7.45455H52.6623V8.49432H52.7305C52.8498 8.14205 53.06 7.86506 53.3612 7.66335C53.6651 7.45881 54.0089 7.35653 54.3924 7.35653C54.4719 7.35653 54.5657 7.35937 54.6737 7.36506C54.7844 7.37074 54.8711 7.37784 54.9336 7.38636V8.60511C54.8825 8.59091 54.7915 8.57528 54.6609 8.55824C54.5302 8.53835 54.3995 8.52841 54.2688 8.52841C53.9677 8.52841 53.6992 8.59233 53.4634 8.72017C53.2305 8.84517 53.0458 9.01989 52.9094 9.24432C52.7731 9.46591 52.7049 9.71875 52.7049 10.0028V14H51.4308ZM61.8349 7.45455L59.4613 14H58.0977L55.7198 7.45455H57.0877L58.7454 12.4915H58.8136L60.467 7.45455H61.8349ZM63.0323 14V7.45455H64.3065V14H63.0323ZM63.6758 6.4446C63.4542 6.4446 63.2638 6.37074 63.1048 6.22301C62.9485 6.07244 62.8704 5.89347 62.8704 5.68608C62.8704 5.47585 62.9485 5.29687 63.1048 5.14915C63.2638 4.99858 63.4542 4.9233 63.6758 4.9233C63.8974 4.9233 64.0863 4.99858 64.2425 5.14915C64.4016 5.29687 64.4812 5.47585 64.4812 5.68608C64.4812 5.89347 64.4016 6.07244 64.2425 6.22301C64.0863 6.37074 63.8974 6.4446 63.6758 6.4446ZM70.9254 9.05256L69.7706 9.2571C69.7223 9.10937 69.6456 8.96875 69.5405 8.83523C69.4382 8.7017 69.299 8.59233 69.1229 8.5071C68.9467 8.42187 68.7266 8.37926 68.4624 8.37926C68.1016 8.37926 67.8004 8.46023 67.5589 8.62216C67.3175 8.78125 67.1967 8.98722 67.1967 9.24006C67.1967 9.45881 67.2777 9.63494 67.4396 9.76847C67.6016 9.90199 67.8629 10.0114 68.2237 10.0966L69.2635 10.3352C69.8658 10.4744 70.3146 10.6889 70.6101 10.9787C70.9055 11.2685 71.0533 11.6449 71.0533 12.108C71.0533 12.5 70.9396 12.8494 70.7124 13.1562C70.4879 13.4602 70.174 13.6989 69.7706 13.8722C69.37 14.0455 68.9055 14.1321 68.3771 14.1321C67.6442 14.1321 67.0462 13.9759 66.5831 13.6634C66.12 13.348 65.8359 12.9006 65.7308 12.321L66.9624 12.1335C67.0391 12.4545 67.1967 12.6974 67.4354 12.8622C67.674 13.0241 67.9851 13.1051 68.3686 13.1051C68.7862 13.1051 69.12 13.0185 69.37 12.8452C69.62 12.669 69.745 12.4545 69.745 12.2017C69.745 11.9972 69.6683 11.8253 69.5149 11.6861C69.3643 11.5469 69.1328 11.4418 68.8203 11.3707L67.7124 11.1278C67.1016 10.9886 66.6499 10.767 66.3572 10.4631C66.0675 10.1591 65.9226 9.77415 65.9226 9.30824C65.9226 8.92187 66.0305 8.58381 66.2464 8.29403C66.4624 8.00426 66.7607 7.77841 67.1413 7.61648C67.522 7.4517 67.9581 7.36932 68.4496 7.36932C69.157 7.36932 69.7138 7.52273 70.12 7.82955C70.5263 8.13352 70.7947 8.54119 70.9254 9.05256ZM73.7283 10.1136V14H72.4542V7.45455H73.6772V8.51989H73.7582C73.9087 8.1733 74.1445 7.89489 74.4656 7.68466C74.7894 7.47443 75.1971 7.36932 75.6886 7.36932C76.1346 7.36932 76.5252 7.46307 76.8604 7.65057C77.1957 7.83523 77.4556 8.1108 77.6403 8.47727C77.8249 8.84375 77.9173 9.29687 77.9173 9.83665V14H76.6431V9.99006C76.6431 9.51562 76.5195 9.14489 76.2724 8.87784C76.0252 8.60795 75.6857 8.47301 75.2539 8.47301C74.9585 8.47301 74.6957 8.53693 74.4656 8.66477C74.2383 8.79261 74.0579 8.98011 73.9244 9.22727C73.7937 9.47159 73.7283 9.76705 73.7283 10.1136ZM79.6261 14V7.45455H80.9002V14H79.6261ZM80.2695 6.4446C80.0479 6.4446 79.8576 6.37074 79.6985 6.22301C79.5423 6.07244 79.4641 5.89347 79.4641 5.68608C79.4641 5.47585 79.5423 5.29687 79.6985 5.14915C79.8576 4.99858 80.0479 4.9233 80.2695 4.9233C80.4911 4.9233 80.68 4.99858 80.8363 5.14915C80.9954 5.29687 81.0749 5.47585 81.0749 5.68608C81.0749 5.89347 80.9954 6.07244 80.8363 6.22301C80.68 6.37074 80.4911 6.4446 80.2695 6.4446ZM83.8885 10.1136V14H82.6143V7.45455H83.8374V8.51989H83.9183C84.0689 8.1733 84.3047 7.89489 84.6257 7.68466C84.9496 7.47443 85.3572 7.36932 85.8487 7.36932C86.2947 7.36932 86.6854 7.46307 87.0206 7.65057C87.3558 7.83523 87.6158 8.1108 87.8004 8.47727C87.9851 8.84375 88.0774 9.29687 88.0774 9.83665V14H86.8033V9.99006C86.8033 9.51562 86.6797 9.14489 86.4325 8.87784C86.1854 8.60795 85.8459 8.47301 85.4141 8.47301C85.1186 8.47301 84.8558 8.53693 84.6257 8.66477C84.3984 8.79261 84.218 8.98011 84.0845 9.22727C83.9538 9.47159 83.8885 9.76705 83.8885 10.1136ZM92.5305 16.5909C92.0107 16.5909 91.5632 16.5227 91.1882 16.3864C90.8161 16.25 90.5121 16.0696 90.2763 15.8452C90.0405 15.6207 89.8643 15.375 89.7479 15.108L90.843 14.6562C90.9197 14.7812 91.022 14.9134 91.1499 15.0526C91.2805 15.1946 91.4567 15.3153 91.6783 15.4148C91.9027 15.5142 92.1911 15.5639 92.5433 15.5639C93.0263 15.5639 93.4254 15.446 93.7408 15.2102C94.0561 14.9773 94.2138 14.6051 94.2138 14.0938V12.8068H94.1328C94.0561 12.946 93.9453 13.1009 93.8004 13.2713C93.6584 13.4418 93.4624 13.5895 93.2124 13.7145C92.9624 13.8395 92.6371 13.902 92.2365 13.902C91.7195 13.902 91.2536 13.7812 90.8388 13.5398C90.4268 13.2955 90.1001 12.9361 89.8587 12.4616C89.62 11.9844 89.5007 11.3977 89.5007 10.7017C89.5007 10.0057 89.6186 9.40909 89.8544 8.91193C90.093 8.41477 90.4197 8.03409 90.8345 7.76989C91.2493 7.50284 91.7195 7.36932 92.245 7.36932C92.6513 7.36932 92.9794 7.4375 93.2294 7.57386C93.4794 7.70739 93.674 7.86364 93.8132 8.04261C93.9553 8.22159 94.0646 8.37926 94.1413 8.51562H94.2351V7.45455H95.4837V14.1449C95.4837 14.7074 95.353 15.169 95.0916 15.5298C94.8303 15.8906 94.4766 16.1577 94.0305 16.331C93.5874 16.5043 93.0874 16.5909 92.5305 16.5909ZM92.5178 12.8452C92.8842 12.8452 93.1939 12.7599 93.4467 12.5895C93.7024 12.4162 93.8956 12.169 94.0263 11.848C94.1598 11.5241 94.2266 11.1364 94.2266 10.6847C94.2266 10.2443 94.1612 9.85653 94.0305 9.52131C93.8999 9.18608 93.7081 8.92472 93.4553 8.73722C93.2024 8.54687 92.8899 8.4517 92.5178 8.4517C92.1342 8.4517 91.8146 8.55114 91.5589 8.75C91.3033 8.94602 91.1101 9.21307 90.9794 9.55114C90.8516 9.8892 90.7876 10.267 90.7876 10.6847C90.7876 11.1136 90.853 11.4901 90.9837 11.8139C91.1143 12.1378 91.3075 12.3906 91.5632 12.5724C91.8217 12.7543 92.1399 12.8452 92.5178 12.8452Z" fill="#708525"/>
</svg>
